<mxfile host="app.diagrams.net" agent="Mozilla/5.0 (Windows NT 10.0; Win64; x64) AppleWebKit/537.36 (KHTML, like Gecko) Chrome/139.0.0.0 Safari/537.36" version="28.1.0">
  <diagram name="Página-1" id="H2-BPs75o9EFJ03Y-eK6">
    <mxGraphModel grid="0" page="0" gridSize="10" guides="1" tooltips="1" connect="1" arrows="1" fold="1" pageScale="1" pageWidth="850" pageHeight="1100" math="0" shadow="0">
      <root>
        <mxCell id="0" />
        <mxCell id="1" parent="0" />
        <mxCell id="QyW4r4yu_jU1wLreswry-101" value="&lt;span style=&quot;font-size: 21px;&quot;&gt;Diagrama de Objetos&lt;/span&gt;" style="swimlane;whiteSpace=wrap;html=1;fillColor=#bac8d3;strokeColor=#23445d;" vertex="1" parent="1">
          <mxGeometry x="730" y="90" width="1090" height="1030" as="geometry" />
        </mxCell>
        <mxCell id="QyW4r4yu_jU1wLreswry-79" value="&lt;div style=&quot;line-height: 100%;&quot;&gt;&lt;div style=&quot;caret-color: rgba(0, 0, 0, 0);&quot;&gt;&lt;u&gt;&lt;font style=&quot;font-size: 14px;&quot; face=&quot;Lucida Console&quot;&gt;&lt;b&gt;dronAgras007: Dron&lt;/b&gt;&lt;/font&gt;&lt;/u&gt;&lt;/div&gt;&lt;div style=&quot;caret-color: rgba(0, 0, 0, 0);&quot;&gt;&lt;font face=&quot;Lucida Console&quot;&gt;&lt;u&gt;&lt;span style=&quot;font-size: 14px;&quot;&gt;&lt;b&gt;&lt;br&gt;&lt;/b&gt;&lt;/span&gt;&lt;/u&gt;&lt;font style=&quot;font-size: 11px;&quot;&gt;&lt;b&gt;idDron&amp;nbsp;&lt;/b&gt;=&amp;nbsp;&lt;i&gt;&quot;AG-007&quot;&lt;/i&gt;&lt;br&gt;&lt;b&gt;modelo&amp;nbsp;&lt;/b&gt;=&amp;nbsp;&lt;i&gt;&quot;DJI Agras T40&quot;&lt;/i&gt;&lt;br&gt;&lt;b&gt;estadoActual&amp;nbsp;&lt;/b&gt;=&amp;nbsp;&lt;i&gt;&quot;Falla Detectada&quot;&lt;/i&gt;&lt;/font&gt;&lt;/font&gt;&lt;/div&gt;&lt;/div&gt;" style="ellipse;shape=cloud;whiteSpace=wrap;html=1;fillColor=#dae8fc;strokeColor=#6c8ebf;strokeWidth=3;fillStyle=auto;" vertex="1" parent="QyW4r4yu_jU1wLreswry-101">
          <mxGeometry x="320" y="30" width="300" height="260" as="geometry" />
        </mxCell>
        <mxCell id="QyW4r4yu_jU1wLreswry-84" value="&lt;div style=&quot;caret-color: rgba(0, 0, 0, 0);&quot;&gt;&lt;span style=&quot;background-color: transparent; font-size: 14px;&quot;&gt;&lt;font face=&quot;Lucida Console&quot;&gt;&lt;b&gt;&lt;u&gt;tecnicoPerez: Tecnico&lt;/u&gt;&lt;/b&gt;&lt;/font&gt;&lt;/span&gt;&lt;/div&gt;&lt;div style=&quot;caret-color: rgba(0, 0, 0, 0);&quot;&gt;&lt;font style=&quot;&quot; face=&quot;Lucida Console&quot;&gt;&lt;u style=&quot;caret-color: light-dark(rgba(0, 0, 0, 0), rgb(237, 237, 237));&quot;&gt;&lt;span style=&quot;font-size: 14px;&quot;&gt;&lt;b&gt;&lt;br&gt;&lt;/b&gt;&lt;/span&gt;&lt;/u&gt;&lt;div style=&quot;&quot;&gt;&lt;div style=&quot;&quot;&gt;&lt;span style=&quot;font-size: 11px;&quot;&gt;&lt;b&gt;idTecnico = &lt;/b&gt;&lt;i&gt;&quot;TEC-JPR&quot;&lt;/i&gt;&lt;/span&gt;&lt;/div&gt;&lt;div style=&quot;&quot;&gt;&lt;span style=&quot;font-size: 11px;&quot;&gt;&lt;b&gt;nombre = &lt;/b&gt;&lt;i&gt;&quot;Juan Pérez&quot;&lt;/i&gt;&lt;/span&gt;&lt;/div&gt;&lt;div style=&quot;&quot;&gt;&lt;span style=&quot;font-size: 11px;&quot;&gt;&lt;b&gt;disponibilidad = &lt;/b&gt;&lt;i&gt;true&lt;/i&gt;&lt;/span&gt;&lt;/div&gt;&lt;/div&gt;&lt;/font&gt;&lt;/div&gt;" style="ellipse;shape=cloud;whiteSpace=wrap;html=1;fillColor=#dae8fc;strokeColor=#6c8ebf;strokeWidth=3;fillStyle=auto;" vertex="1" parent="QyW4r4yu_jU1wLreswry-101">
          <mxGeometry x="785" y="530" width="300" height="260" as="geometry" />
        </mxCell>
        <mxCell id="QyW4r4yu_jU1wLreswry-100" style="edgeStyle=orthogonalEdgeStyle;rounded=0;orthogonalLoop=1;jettySize=auto;html=1;exitX=0.875;exitY=0.5;exitDx=0;exitDy=0;exitPerimeter=0;endArrow=none;endFill=0;entryX=0.16;entryY=0.55;entryDx=0;entryDy=0;entryPerimeter=0;" edge="1" parent="QyW4r4yu_jU1wLreswry-101" source="QyW4r4yu_jU1wLreswry-89" target="QyW4r4yu_jU1wLreswry-84">
          <mxGeometry relative="1" as="geometry" />
        </mxCell>
        <mxCell id="QyW4r4yu_jU1wLreswry-89" value="&lt;div style=&quot;caret-color: rgba(0, 0, 0, 0);&quot;&gt;&lt;font face=&quot;Lucida Console&quot;&gt;&lt;span style=&quot;font-size: 14px;&quot;&gt;&lt;b&gt;&lt;u&gt;reparacionUrgente: MantenimientoCorrectivo&lt;/u&gt;&lt;/b&gt;&lt;/span&gt;&lt;/font&gt;&lt;/div&gt;&lt;div style=&quot;caret-color: rgba(0, 0, 0, 0);&quot;&gt;&lt;font style=&quot;&quot; face=&quot;Lucida Console&quot;&gt;&lt;u style=&quot;caret-color: light-dark(rgba(0, 0, 0, 0), rgb(237, 237, 237));&quot;&gt;&lt;span style=&quot;font-size: 14px;&quot;&gt;&lt;b&gt;&lt;br&gt;&lt;/b&gt;&lt;/span&gt;&lt;/u&gt;&lt;div style=&quot;&quot;&gt;&lt;div style=&quot;&quot;&gt;&lt;b&gt;&lt;font style=&quot;font-size: 11px;&quot;&gt;idMantenimiento =&amp;nbsp;&lt;/font&gt;&lt;/b&gt;&lt;/div&gt;&lt;div style=&quot;&quot;&gt;&lt;i&gt;&lt;font style=&quot;font-size: 11px;&quot;&gt;&quot;MC-250820-001&quot;&lt;/font&gt;&lt;/i&gt;&lt;/div&gt;&lt;div style=&quot;&quot;&gt;&lt;b&gt;&lt;font style=&quot;font-size: 11px;&quot;&gt;descripcionFalla =&amp;nbsp;&lt;/font&gt;&lt;/b&gt;&lt;/div&gt;&lt;div style=&quot;&quot;&gt;&lt;i&gt;&lt;font style=&quot;font-size: 11px;&quot;&gt;&quot;Falla en estabilizador giroscópico&quot;&lt;/font&gt;&lt;/i&gt;&lt;/div&gt;&lt;div style=&quot;&quot;&gt;&lt;b&gt;&lt;font style=&quot;font-size: 11px;&quot;&gt;gravedad =&amp;nbsp;&lt;/font&gt;&lt;/b&gt;&lt;/div&gt;&lt;div style=&quot;&quot;&gt;&lt;i&gt;&lt;font style=&quot;font-size: 11px;&quot;&gt;&quot;Crítica&quot;&lt;/font&gt;&lt;/i&gt;&lt;/div&gt;&lt;/div&gt;&lt;/font&gt;&lt;/div&gt;" style="ellipse;shape=cloud;whiteSpace=wrap;html=1;fillColor=#dae8fc;strokeColor=#6c8ebf;strokeWidth=3;fillStyle=auto;" vertex="1" parent="QyW4r4yu_jU1wLreswry-101">
          <mxGeometry x="365" y="770" width="300" height="260" as="geometry" />
        </mxCell>
        <mxCell id="QyW4r4yu_jU1wLreswry-90" style="edgeStyle=orthogonalEdgeStyle;rounded=0;orthogonalLoop=1;jettySize=auto;html=1;endArrow=none;endFill=0;entryX=0.4;entryY=0.1;entryDx=0;entryDy=0;entryPerimeter=0;exitX=0.55;exitY=0.95;exitDx=0;exitDy=0;exitPerimeter=0;" edge="1" parent="QyW4r4yu_jU1wLreswry-101" source="QyW4r4yu_jU1wLreswry-93" target="QyW4r4yu_jU1wLreswry-94">
          <mxGeometry relative="1" as="geometry" />
        </mxCell>
        <mxCell id="QyW4r4yu_jU1wLreswry-93" value="&lt;div style=&quot;caret-color: rgba(0, 0, 0, 0);&quot;&gt;&lt;span style=&quot;background-color: transparent; font-size: 14px;&quot;&gt;&lt;font face=&quot;Lucida Console&quot;&gt;&lt;b&gt;&lt;u&gt;giroscopio1138: Sensor&lt;/u&gt;&lt;/b&gt;&lt;/font&gt;&lt;/span&gt;&lt;/div&gt;&lt;div style=&quot;caret-color: rgba(0, 0, 0, 0);&quot;&gt;&lt;font face=&quot;Lucida Console&quot;&gt;&lt;u&gt;&lt;span style=&quot;font-size: 14px;&quot;&gt;&lt;b&gt;&lt;br&gt;&lt;/b&gt;&lt;/span&gt;&lt;/u&gt;&lt;div&gt;&lt;font style=&quot;font-size: 11px;&quot;&gt;&lt;b&gt;idSensor =&amp;nbsp;&lt;/b&gt;&lt;i&gt;&quot;SENS-GIR-1138&quot;&lt;/i&gt;&lt;/font&gt;&lt;/div&gt;&lt;div&gt;&lt;font style=&quot;font-size: 11px;&quot;&gt;&lt;b&gt;tipo =&amp;nbsp;&lt;/b&gt;&lt;i&gt;&quot;Giroscopio&quot;&lt;/i&gt;&lt;/font&gt;&lt;/div&gt;&lt;div&gt;&lt;font style=&quot;font-size: 11px;&quot;&gt;&lt;b&gt;estado =&amp;nbsp;&lt;/b&gt;&lt;i&gt;&quot;Anomalía&quot;&lt;/i&gt;&lt;/font&gt;&lt;/div&gt;&lt;/font&gt;&lt;/div&gt;" style="ellipse;shape=cloud;whiteSpace=wrap;html=1;fillColor=#d5e8d4;strokeColor=#82b366;fillStyle=auto;strokeWidth=3;" vertex="1" parent="QyW4r4yu_jU1wLreswry-101">
          <mxGeometry x="10" y="220" width="300" height="260" as="geometry" />
        </mxCell>
        <mxCell id="QyW4r4yu_jU1wLreswry-94" value="&lt;div style=&quot;caret-color: rgba(0, 0, 0, 0);&quot;&gt;&lt;span style=&quot;background-color: transparent; font-size: 14px;&quot;&gt;&lt;font face=&quot;Lucida Console&quot;&gt;&lt;b&gt;&lt;u&gt;alerta0901&lt;/u&gt;&lt;/b&gt;&lt;/font&gt;&lt;/span&gt;&lt;span style=&quot;caret-color: light-dark(rgba(0, 0, 0, 0), rgb(237, 237, 237)); background-color: transparent; font-size: 14px;&quot;&gt;&lt;font face=&quot;Lucida Console&quot;&gt;&lt;b&gt;&lt;u&gt;:&amp;nbsp;&lt;/u&gt;&lt;/b&gt;&lt;/font&gt;&lt;/span&gt;&lt;span style=&quot;caret-color: light-dark(rgba(0, 0, 0, 0), rgb(237, 237, 237)); background-color: transparent; font-size: 14px;&quot;&gt;&lt;font face=&quot;Lucida Console&quot;&gt;&lt;b&gt;&lt;u&gt;Alerta&lt;/u&gt;&lt;/b&gt;&lt;/font&gt;&lt;/span&gt;&lt;/div&gt;&lt;div style=&quot;caret-color: rgba(0, 0, 0, 0);&quot;&gt;&lt;font style=&quot;&quot; face=&quot;Lucida Console&quot;&gt;&lt;u style=&quot;caret-color: light-dark(rgba(0, 0, 0, 0), rgb(237, 237, 237));&quot;&gt;&lt;span style=&quot;font-size: 14px;&quot;&gt;&lt;b&gt;&lt;br&gt;&lt;/b&gt;&lt;/span&gt;&lt;/u&gt;&lt;div style=&quot;&quot;&gt;&lt;div style=&quot;&quot;&gt;&lt;font style=&quot;font-size: 11px;&quot;&gt;&lt;b&gt;idAlerta = &lt;/b&gt;&lt;i&gt;&quot;ALR-901&quot;&lt;/i&gt;&lt;/font&gt;&lt;/div&gt;&lt;div style=&quot;&quot;&gt;&lt;b&gt;&lt;font style=&quot;font-size: 11px;&quot;&gt;descripcion =&amp;nbsp;&lt;/font&gt;&lt;/b&gt;&lt;/div&gt;&lt;div style=&quot;&quot;&gt;&lt;i&gt;&lt;font style=&quot;font-size: 11px;&quot;&gt;&quot;Desviación de eje &amp;gt; 5 grados&quot;&lt;/font&gt;&lt;/i&gt;&lt;/div&gt;&lt;div style=&quot;&quot;&gt;&lt;font style=&quot;font-size: 11px;&quot;&gt;&lt;b&gt;prioridad = &lt;/b&gt;&lt;i&gt;&quot;Alta&quot;&lt;/i&gt;&lt;/font&gt;&lt;/div&gt;&lt;/div&gt;&lt;/font&gt;&lt;/div&gt;" style="ellipse;shape=cloud;whiteSpace=wrap;html=1;fillColor=#dae8fc;strokeColor=#6c8ebf;strokeWidth=3;fillStyle=auto;" vertex="1" parent="QyW4r4yu_jU1wLreswry-101">
          <mxGeometry x="10" y="540" width="300" height="260" as="geometry" />
        </mxCell>
        <mxCell id="QyW4r4yu_jU1wLreswry-96" style="edgeStyle=orthogonalEdgeStyle;rounded=0;orthogonalLoop=1;jettySize=auto;html=1;entryX=0.07;entryY=0.4;entryDx=0;entryDy=0;entryPerimeter=0;exitX=0.4;exitY=0.1;exitDx=0;exitDy=0;exitPerimeter=0;endArrow=none;endFill=0;endSize=10;" edge="1" parent="QyW4r4yu_jU1wLreswry-101" source="QyW4r4yu_jU1wLreswry-93" target="QyW4r4yu_jU1wLreswry-79">
          <mxGeometry relative="1" as="geometry">
            <Array as="points">
              <mxPoint x="130" y="134" />
            </Array>
          </mxGeometry>
        </mxCell>
        <mxCell id="QyW4r4yu_jU1wLreswry-99" style="edgeStyle=orthogonalEdgeStyle;rounded=0;orthogonalLoop=1;jettySize=auto;html=1;entryX=0.96;entryY=0.7;entryDx=0;entryDy=0;entryPerimeter=0;exitX=0.07;exitY=0.4;exitDx=0;exitDy=0;exitPerimeter=0;endArrow=none;endFill=0;startSize=6;endSize=10;" edge="1" parent="QyW4r4yu_jU1wLreswry-101" source="QyW4r4yu_jU1wLreswry-89" target="QyW4r4yu_jU1wLreswry-94">
          <mxGeometry relative="1" as="geometry" />
        </mxCell>
        <mxCell id="QyW4r4yu_jU1wLreswry-102" value="&lt;span style=&quot;font-size: 21px;&quot;&gt;Diagrama de Clases&lt;/span&gt;" style="swimlane;whiteSpace=wrap;html=1;fillColor=#bac8d3;strokeColor=#23445d;" vertex="1" parent="1">
          <mxGeometry x="-490" y="80" width="1100" height="1080" as="geometry" />
        </mxCell>
        <mxCell id="QyW4r4yu_jU1wLreswry-10" style="edgeStyle=orthogonalEdgeStyle;rounded=0;orthogonalLoop=1;jettySize=auto;html=1;endArrow=none;endFill=0;exitX=0.88;exitY=0.25;exitDx=0;exitDy=0;exitPerimeter=0;entryX=0.07;entryY=0.4;entryDx=0;entryDy=0;entryPerimeter=0;" edge="1" parent="QyW4r4yu_jU1wLreswry-102" source="MiX1Z2755fAzNrx2txld-1" target="QyW4r4yu_jU1wLreswry-2">
          <mxGeometry relative="1" as="geometry" />
        </mxCell>
        <mxCell id="QyW4r4yu_jU1wLreswry-14" value="n" style="edgeLabel;html=1;align=center;verticalAlign=middle;resizable=0;points=[];fontSize=14;" connectable="0" vertex="1" parent="QyW4r4yu_jU1wLreswry-10">
          <mxGeometry x="0.8231" y="2" relative="1" as="geometry">
            <mxPoint y="-8" as="offset" />
          </mxGeometry>
        </mxCell>
        <mxCell id="QyW4r4yu_jU1wLreswry-15" value="1" style="edgeLabel;html=1;align=center;verticalAlign=middle;resizable=0;points=[];fontSize=14;" connectable="0" vertex="1" parent="QyW4r4yu_jU1wLreswry-10">
          <mxGeometry x="-0.8825" y="-2" relative="1" as="geometry">
            <mxPoint y="-12" as="offset" />
          </mxGeometry>
        </mxCell>
        <mxCell id="QyW4r4yu_jU1wLreswry-38" style="edgeStyle=orthogonalEdgeStyle;rounded=0;orthogonalLoop=1;jettySize=auto;html=1;endArrow=none;endFill=0;exitX=0.55;exitY=0.95;exitDx=0;exitDy=0;exitPerimeter=0;entryX=0.07;entryY=0.4;entryDx=0;entryDy=0;entryPerimeter=0;" edge="1" parent="QyW4r4yu_jU1wLreswry-102" source="MiX1Z2755fAzNrx2txld-1" target="QyW4r4yu_jU1wLreswry-30">
          <mxGeometry relative="1" as="geometry">
            <Array as="points">
              <mxPoint x="482.5" y="277" />
              <mxPoint x="482.5" y="374" />
            </Array>
          </mxGeometry>
        </mxCell>
        <mxCell id="QyW4r4yu_jU1wLreswry-39" value="n" style="edgeLabel;html=1;align=center;verticalAlign=middle;resizable=0;points=[];fontSize=14;" connectable="0" vertex="1" parent="QyW4r4yu_jU1wLreswry-38">
          <mxGeometry x="0.9045" y="3" relative="1" as="geometry">
            <mxPoint x="-16" y="-7" as="offset" />
          </mxGeometry>
        </mxCell>
        <mxCell id="QyW4r4yu_jU1wLreswry-40" value="1" style="edgeLabel;html=1;align=center;verticalAlign=middle;resizable=0;points=[];fontSize=14;" connectable="0" vertex="1" parent="QyW4r4yu_jU1wLreswry-38">
          <mxGeometry x="-0.828" y="2" relative="1" as="geometry">
            <mxPoint x="8" y="-8" as="offset" />
          </mxGeometry>
        </mxCell>
        <mxCell id="MiX1Z2755fAzNrx2txld-1" value="&lt;div style=&quot;line-height: 100%;&quot;&gt;&lt;div&gt;&lt;b&gt;&lt;font style=&quot;font-size: 14px;&quot; face=&quot;Lucida Console&quot;&gt;Dron&lt;/font&gt;&lt;/b&gt;&lt;/div&gt;&lt;div&gt;&lt;font face=&quot;Lucida Console&quot;&gt;------------------------&lt;/font&gt;&lt;/div&gt;&lt;div&gt;&lt;font face=&quot;Lucida Console&quot; style=&quot;font-size: 11px; line-height: 100%;&quot;&gt;&lt;b&gt;idDron&lt;/b&gt;: &lt;i&gt;String &lt;/i&gt;&lt;b&gt;modelo&lt;/b&gt;: &lt;i&gt;String &lt;/i&gt;&lt;b&gt;horasVueloTotales&lt;/b&gt;: &lt;i&gt;Float&amp;nbsp;&lt;/i&gt;&lt;/font&gt;&lt;/div&gt;&lt;div&gt;&lt;font face=&quot;Lucida Console&quot; style=&quot;font-size: 11px; line-height: 100%;&quot;&gt;&lt;b&gt;estadoActual&lt;/b&gt;: &lt;i&gt;String&lt;/i&gt;&lt;/font&gt;&lt;/div&gt;&lt;div&gt;&lt;font face=&quot;Lucida Console&quot;&gt;------------------------&lt;/font&gt;&lt;/div&gt;&lt;div&gt;&lt;i&gt;&lt;font face=&quot;Lucida Console&quot;&gt;iniciarMision()&lt;/font&gt;&lt;/i&gt;&lt;/div&gt;&lt;div&gt;&lt;i&gt;&lt;font face=&quot;Lucida Console&quot;&gt;finalizarMision()&lt;/font&gt;&lt;/i&gt;&lt;/div&gt;&lt;div&gt;&lt;i&gt;&lt;font face=&quot;Lucida Console&quot;&gt;obtenerHistorial()&lt;/font&gt;&lt;/i&gt;&lt;/div&gt;&lt;div&gt;&lt;i&gt;&lt;font face=&quot;Lucida Console&quot;&gt;actualizarEstado()&lt;/font&gt;&lt;/i&gt;&lt;/div&gt;&lt;/div&gt;" style="ellipse;shape=cloud;whiteSpace=wrap;html=1;fillColor=#dae8fc;strokeColor=#6c8ebf;dashed=1;dashPattern=12 12;strokeWidth=3;fillStyle=hatch;" vertex="1" parent="QyW4r4yu_jU1wLreswry-102">
          <mxGeometry x="322.5" y="30" width="300" height="260" as="geometry" />
        </mxCell>
        <mxCell id="QyW4r4yu_jU1wLreswry-2" value="&lt;div&gt;&lt;font style=&quot;font-size: 14px;&quot; face=&quot;Lucida Console&quot;&gt;&lt;b style=&quot;&quot;&gt;Mision&lt;/b&gt;&lt;/font&gt;&lt;/div&gt;&lt;div&gt;&lt;font face=&quot;Lucida Console&quot;&gt;------------------------&lt;/font&gt;&lt;/div&gt;&lt;div style=&quot;line-height: 100%;&quot;&gt;&lt;div&gt;&lt;font face=&quot;Lucida Console&quot;&gt;&lt;span style=&quot;font-size: 11px; line-height: 100%;&quot;&gt;&lt;b&gt;idMision: &lt;/b&gt;&lt;i&gt;String &lt;/i&gt;&lt;b&gt;fechaVuelo: &lt;/b&gt;&lt;i&gt;Date &lt;/i&gt;&lt;b&gt;duracionHoras: &lt;/b&gt;&lt;i&gt;Float&amp;nbsp;&lt;/i&gt;&lt;/span&gt;&lt;/font&gt;&lt;/div&gt;&lt;div&gt;&lt;font face=&quot;Lucida Console&quot;&gt;&lt;span style=&quot;font-size: 11px; line-height: 100%;&quot;&gt;&lt;b&gt;condicionesClimaticas: &lt;/b&gt;&lt;i&gt;String&amp;nbsp;&lt;/i&gt;&lt;/span&gt;&lt;/font&gt;&lt;/div&gt;&lt;div&gt;&lt;font face=&quot;Lucida Console&quot;&gt;&lt;span style=&quot;font-size: 11px; line-height: 100%;&quot;&gt;&lt;b&gt;tipoDeSuelo: &lt;/b&gt;&lt;i&gt;String&lt;/i&gt;&lt;/span&gt;&lt;/font&gt;&lt;/div&gt;&lt;/div&gt;&lt;div&gt;&lt;span style=&quot;font-family: &amp;quot;Lucida Console&amp;quot;; background-color: transparent; color: light-dark(rgb(0, 0, 0), rgb(255, 255, 255));&quot;&gt;------------------------&lt;/span&gt;&lt;/div&gt;&lt;div&gt;&lt;div&gt;&lt;font face=&quot;Lucida Console&quot;&gt;&lt;i&gt;registrarDatosVuelo()&lt;/i&gt;&lt;/font&gt;&lt;/div&gt;&lt;div&gt;&lt;font face=&quot;Lucida Console&quot;&gt;&lt;i&gt;obtenerParametros()&lt;/i&gt;&lt;/font&gt;&lt;/div&gt;&lt;div&gt;&lt;font face=&quot;Lucida Console&quot;&gt;&lt;i&gt;asociarDron()&lt;/i&gt;&lt;/font&gt;&lt;/div&gt;&lt;/div&gt;" style="ellipse;shape=cloud;whiteSpace=wrap;html=1;fillColor=#dae8fc;strokeColor=#6c8ebf;strokeWidth=3;dashed=1;dashPattern=12 12;fillStyle=hatch;" vertex="1" parent="QyW4r4yu_jU1wLreswry-102">
          <mxGeometry x="787.5" y="60" width="300" height="260" as="geometry" />
        </mxCell>
        <mxCell id="QyW4r4yu_jU1wLreswry-32" style="edgeStyle=orthogonalEdgeStyle;rounded=0;orthogonalLoop=1;jettySize=auto;html=1;endArrow=none;endFill=0;entryX=0.875;entryY=0.5;entryDx=0;entryDy=0;entryPerimeter=0;exitX=0.07;exitY=0.4;exitDx=0;exitDy=0;exitPerimeter=0;" edge="1" parent="QyW4r4yu_jU1wLreswry-102" source="QyW4r4yu_jU1wLreswry-16" target="QyW4r4yu_jU1wLreswry-17">
          <mxGeometry relative="1" as="geometry" />
        </mxCell>
        <mxCell id="QyW4r4yu_jU1wLreswry-33" value="1" style="edgeLabel;html=1;align=center;verticalAlign=middle;resizable=0;points=[];fontSize=14;" connectable="0" vertex="1" parent="QyW4r4yu_jU1wLreswry-32">
          <mxGeometry x="-0.85" relative="1" as="geometry">
            <mxPoint x="-10" y="-8" as="offset" />
          </mxGeometry>
        </mxCell>
        <mxCell id="QyW4r4yu_jU1wLreswry-34" value="n" style="edgeLabel;html=1;align=center;verticalAlign=middle;resizable=0;points=[];fontSize=14;" connectable="0" vertex="1" parent="QyW4r4yu_jU1wLreswry-32">
          <mxGeometry x="0.85" y="1" relative="1" as="geometry">
            <mxPoint x="-1" y="-11" as="offset" />
          </mxGeometry>
        </mxCell>
        <mxCell id="QyW4r4yu_jU1wLreswry-16" value="&lt;div&gt;&lt;font style=&quot;font-size: 14px;&quot; face=&quot;Lucida Console&quot;&gt;&lt;b style=&quot;&quot;&gt;Tecnico&lt;/b&gt;&lt;/font&gt;&lt;/div&gt;&lt;div&gt;&lt;font face=&quot;Lucida Console&quot;&gt;------------------------&lt;/font&gt;&lt;/div&gt;&lt;div style=&quot;line-height: 100%;&quot;&gt;&lt;div&gt;&lt;font face=&quot;Lucida Console&quot;&gt;&lt;span style=&quot;font-size: 11px; line-height: 100%;&quot;&gt;&lt;b&gt;idTecnico: &lt;/b&gt;&lt;i&gt;String &lt;/i&gt;&lt;b&gt;nombre: &lt;/b&gt;&lt;i&gt;String &lt;/i&gt;&lt;b&gt;disponibilidad: &lt;/b&gt;&lt;i&gt;Boolean&amp;nbsp;&lt;/i&gt;&lt;/span&gt;&lt;/font&gt;&lt;/div&gt;&lt;div&gt;&lt;font face=&quot;Lucida Console&quot;&gt;&lt;span style=&quot;font-size: 11px; line-height: 100%;&quot;&gt;&lt;b&gt;ubicacion: &lt;/b&gt;&lt;i&gt;String&amp;nbsp;&lt;/i&gt;&lt;/span&gt;&lt;/font&gt;&lt;/div&gt;&lt;div&gt;&lt;font face=&quot;Lucida Console&quot;&gt;&lt;span style=&quot;font-size: 11px; line-height: 100%;&quot;&gt;&lt;b&gt;habilidades: &lt;/b&gt;&lt;i&gt;Array&amp;lt;String&amp;gt;&lt;/i&gt;&lt;/span&gt;&lt;/font&gt;&lt;/div&gt;&lt;/div&gt;&lt;div&gt;&lt;span style=&quot;font-family: &amp;quot;Lucida Console&amp;quot;; background-color: transparent; color: light-dark(rgb(0, 0, 0), rgb(255, 255, 255));&quot;&gt;------------------------&lt;/span&gt;&lt;/div&gt;&lt;div&gt;&lt;div&gt;&lt;font face=&quot;Lucida Console&quot;&gt;&lt;i&gt;asignarMantenimiento()&lt;/i&gt;&lt;/font&gt;&lt;/div&gt;&lt;div&gt;&lt;font face=&quot;Lucida Console&quot;&gt;&lt;i&gt;consultarDisponibilidad()&lt;/i&gt;&lt;/font&gt;&lt;/div&gt;&lt;div&gt;&lt;font face=&quot;Lucida Console&quot;&gt;&lt;i&gt;actualizarUbicacion()&lt;/i&gt;&lt;/font&gt;&lt;/div&gt;&lt;div&gt;&lt;font face=&quot;Lucida Console&quot;&gt;&lt;i&gt;registrarTrabajo()&lt;/i&gt;&lt;/font&gt;&lt;/div&gt;&lt;/div&gt;" style="ellipse;shape=cloud;whiteSpace=wrap;html=1;fillColor=#dae8fc;strokeColor=#6c8ebf;dashed=1;dashPattern=12 12;strokeWidth=3;fillStyle=hatch;" vertex="1" parent="QyW4r4yu_jU1wLreswry-102">
          <mxGeometry x="787.5" y="530" width="300" height="260" as="geometry" />
        </mxCell>
        <mxCell id="QyW4r4yu_jU1wLreswry-17" value="&lt;div&gt;&lt;font style=&quot;font-size: 14px;&quot; face=&quot;Lucida Console&quot;&gt;&lt;b style=&quot;&quot;&gt;Mantenimiento&lt;/b&gt;&lt;/font&gt;&lt;/div&gt;&lt;div&gt;&lt;font face=&quot;Lucida Console&quot;&gt;------------------------&lt;/font&gt;&lt;/div&gt;&lt;div style=&quot;line-height: 100%;&quot;&gt;&lt;font face=&quot;Lucida Console&quot;&gt;&lt;span style=&quot;font-size: 11px;&quot;&gt;&lt;b&gt;idMantenimiento: &lt;/b&gt;&lt;i&gt;String&amp;nbsp;&lt;/i&gt;&lt;/span&gt;&lt;/font&gt;&lt;/div&gt;&lt;div style=&quot;line-height: 100%;&quot;&gt;&lt;font face=&quot;Lucida Console&quot;&gt;&lt;span style=&quot;font-size: 11px;&quot;&gt;&lt;b&gt;fechaProgramada: &lt;/b&gt;&lt;i&gt;Date&amp;nbsp;&lt;/i&gt;&lt;/span&gt;&lt;/font&gt;&lt;/div&gt;&lt;div style=&quot;line-height: 100%;&quot;&gt;&lt;font face=&quot;Lucida Console&quot;&gt;&lt;span style=&quot;font-size: 11px;&quot;&gt;&lt;b&gt;diagnostico: &lt;/b&gt;&lt;i&gt;String&amp;nbsp;&lt;/i&gt;&lt;/span&gt;&lt;/font&gt;&lt;/div&gt;&lt;div style=&quot;line-height: 100%;&quot;&gt;&lt;font face=&quot;Lucida Console&quot;&gt;&lt;span style=&quot;font-size: 11px;&quot;&gt;&lt;b&gt;piezasUtilizadas: &lt;/b&gt;&lt;i&gt;Array&amp;lt;String&amp;gt;&lt;/i&gt;&lt;/span&gt;&lt;/font&gt;&lt;/div&gt;&lt;div&gt;&lt;span style=&quot;font-family: &amp;quot;Lucida Console&amp;quot;; background-color: transparent; color: light-dark(rgb(0, 0, 0), rgb(255, 255, 255));&quot;&gt;------------------------&lt;/span&gt;&lt;/div&gt;&lt;div&gt;&lt;div&gt;&lt;font face=&quot;Lucida Console&quot;&gt;&lt;i&gt;programar()&lt;/i&gt;&lt;/font&gt;&lt;/div&gt;&lt;div&gt;&lt;font face=&quot;Lucida Console&quot;&gt;&lt;i&gt;finalizar()&lt;/i&gt;&lt;/font&gt;&lt;/div&gt;&lt;div&gt;&lt;font face=&quot;Lucida Console&quot;&gt;&lt;i&gt;asignarTecnico()&lt;/i&gt;&lt;/font&gt;&lt;/div&gt;&lt;/div&gt;" style="ellipse;shape=cloud;whiteSpace=wrap;html=1;fillColor=#dae8fc;strokeColor=#6c8ebf;dashed=1;dashPattern=12 12;strokeWidth=3;fillStyle=hatch;" vertex="1" parent="QyW4r4yu_jU1wLreswry-102">
          <mxGeometry x="322.5" y="410" width="300" height="260" as="geometry" />
        </mxCell>
        <mxCell id="QyW4r4yu_jU1wLreswry-20" value="" style="edgeStyle=orthogonalEdgeStyle;rounded=0;orthogonalLoop=1;jettySize=auto;html=1;endArrow=block;endFill=1;curved=0;entryX=0.8;entryY=0.8;entryDx=0;entryDy=0;entryPerimeter=0;exitX=0.16;exitY=0.55;exitDx=0;exitDy=0;exitPerimeter=0;endSize=10;" edge="1" parent="QyW4r4yu_jU1wLreswry-102" source="QyW4r4yu_jU1wLreswry-18" target="QyW4r4yu_jU1wLreswry-17">
          <mxGeometry relative="1" as="geometry">
            <Array as="points">
              <mxPoint x="712.5" y="943" />
              <mxPoint x="712.5" y="700" />
              <mxPoint x="562.5" y="700" />
            </Array>
          </mxGeometry>
        </mxCell>
        <mxCell id="QyW4r4yu_jU1wLreswry-18" value="&lt;div&gt;&lt;div&gt;&lt;font style=&quot;font-size: 14px;&quot; face=&quot;Lucida Console&quot;&gt;&lt;b style=&quot;&quot;&gt;MantenimientoPreventivo&lt;/b&gt;&lt;/font&gt;&lt;/div&gt;&lt;/div&gt;&lt;div&gt;&lt;font face=&quot;Lucida Console&quot;&gt;------------------------&lt;/font&gt;&lt;/div&gt;&lt;div style=&quot;line-height: 100%;&quot;&gt;&lt;div style=&quot;line-height: 100%;&quot;&gt;&lt;font style=&quot;font-size: 11px;&quot; face=&quot;Lucida Console&quot;&gt;&lt;b&gt;intervaloHorasVuelo&lt;/b&gt;: &lt;i&gt;Float&lt;/i&gt;&lt;/font&gt;&lt;/div&gt;&lt;/div&gt;&lt;div&gt;&lt;span style=&quot;font-family: &amp;quot;Lucida Console&amp;quot;; background-color: transparent; color: light-dark(rgb(0, 0, 0), rgb(255, 255, 255));&quot;&gt;------------------------&lt;/span&gt;&lt;/div&gt;&lt;div&gt;&lt;div&gt;&lt;font face=&quot;Lucida Console&quot;&gt;&lt;i&gt;ejecutarProtocoloEstandar()&lt;/i&gt;&lt;/font&gt;&lt;/div&gt;&lt;div&gt;&lt;br&gt;&lt;/div&gt;&lt;/div&gt;" style="ellipse;shape=cloud;whiteSpace=wrap;html=1;fillColor=#dae8fc;strokeColor=#6c8ebf;fillStyle=hatch;dashed=1;dashPattern=12 12;strokeWidth=3;" vertex="1" parent="QyW4r4yu_jU1wLreswry-102">
          <mxGeometry x="787.5" y="800" width="300" height="260" as="geometry" />
        </mxCell>
        <mxCell id="QyW4r4yu_jU1wLreswry-21" style="edgeStyle=orthogonalEdgeStyle;rounded=0;orthogonalLoop=1;jettySize=auto;html=1;endArrow=block;endFill=1;entryX=0.55;entryY=0.95;entryDx=0;entryDy=0;entryPerimeter=0;exitX=0.4;exitY=0.1;exitDx=0;exitDy=0;exitPerimeter=0;endSize=10;" edge="1" parent="QyW4r4yu_jU1wLreswry-102" source="QyW4r4yu_jU1wLreswry-19" target="QyW4r4yu_jU1wLreswry-17">
          <mxGeometry relative="1" as="geometry" />
        </mxCell>
        <mxCell id="QyW4r4yu_jU1wLreswry-19" value="&lt;div&gt;&lt;div&gt;&lt;span style=&quot;background-color: transparent; font-size: 14px;&quot;&gt;&lt;font face=&quot;Lucida Console&quot;&gt;&lt;b&gt;MantenimientoCorrectivo&lt;/b&gt;&lt;/font&gt;&lt;/span&gt;&lt;/div&gt;&lt;div&gt;&lt;span style=&quot;font-family: &amp;quot;Lucida Console&amp;quot;; background-color: transparent; color: light-dark(rgb(0, 0, 0), rgb(255, 255, 255));&quot;&gt;------------------------&lt;/span&gt;&lt;/div&gt;&lt;/div&gt;&lt;div style=&quot;line-height: 100%;&quot;&gt;&lt;div style=&quot;line-height: 100%;&quot;&gt;&lt;font face=&quot;Lucida Console&quot;&gt;&lt;b&gt;descripcionFalla&lt;/b&gt;: &lt;i&gt;String&amp;nbsp;&lt;/i&gt;&lt;/font&gt;&lt;/div&gt;&lt;div style=&quot;line-height: 100%;&quot;&gt;&lt;font face=&quot;Lucida Console&quot;&gt;&lt;b&gt;gravedad&lt;/b&gt;: &lt;i&gt;String&lt;/i&gt;&lt;/font&gt;&lt;/div&gt;&lt;div style=&quot;line-height: 100%;&quot;&gt;&lt;span style=&quot;background-color: transparent; color: light-dark(rgb(0, 0, 0), rgb(255, 255, 255)); font-family: &amp;quot;Lucida Console&amp;quot;;&quot;&gt;------------------------&lt;/span&gt;&lt;/div&gt;&lt;/div&gt;&lt;div&gt;&lt;div&gt;&lt;font face=&quot;Lucida Console&quot;&gt;&lt;i&gt;reemplazarComponentes()&lt;/i&gt;&lt;/font&gt;&lt;/div&gt;&lt;/div&gt;" style="ellipse;shape=cloud;whiteSpace=wrap;html=1;fillColor=#dae8fc;strokeColor=#6c8ebf;strokeWidth=3;fillStyle=hatch;dashed=1;dashPattern=12 12;" vertex="1" parent="QyW4r4yu_jU1wLreswry-102">
          <mxGeometry x="367.5" y="770" width="300" height="260" as="geometry" />
        </mxCell>
        <mxCell id="QyW4r4yu_jU1wLreswry-27" style="edgeStyle=orthogonalEdgeStyle;rounded=0;orthogonalLoop=1;jettySize=auto;html=1;endArrow=none;endFill=0;entryX=0.4;entryY=0.1;entryDx=0;entryDy=0;entryPerimeter=0;exitX=0.55;exitY=0.95;exitDx=0;exitDy=0;exitPerimeter=0;" edge="1" parent="QyW4r4yu_jU1wLreswry-102" source="QyW4r4yu_jU1wLreswry-22" target="QyW4r4yu_jU1wLreswry-26">
          <mxGeometry relative="1" as="geometry" />
        </mxCell>
        <mxCell id="QyW4r4yu_jU1wLreswry-28" value="1" style="edgeLabel;html=1;align=center;verticalAlign=middle;resizable=0;points=[];fontSize=14;" connectable="0" vertex="1" parent="QyW4r4yu_jU1wLreswry-27">
          <mxGeometry x="-0.8966" relative="1" as="geometry">
            <mxPoint x="-10" y="7" as="offset" />
          </mxGeometry>
        </mxCell>
        <mxCell id="QyW4r4yu_jU1wLreswry-29" value="n" style="edgeLabel;html=1;align=center;verticalAlign=middle;resizable=0;points=[];fontSize=14;" connectable="0" vertex="1" parent="QyW4r4yu_jU1wLreswry-27">
          <mxGeometry x="0.8297" relative="1" as="geometry">
            <mxPoint x="-10" y="-15" as="offset" />
          </mxGeometry>
        </mxCell>
        <mxCell id="QyW4r4yu_jU1wLreswry-22" value="&lt;div&gt;&lt;font face=&quot;Lucida Console&quot;&gt;&lt;span style=&quot;font-size: 14px;&quot;&gt;&lt;b&gt;Sensor&lt;/b&gt;&lt;/span&gt;&lt;/font&gt;&lt;/div&gt;&lt;div&gt;&lt;font face=&quot;Lucida Console&quot;&gt;------------------------&lt;/font&gt;&lt;/div&gt;&lt;div style=&quot;line-height: 100%;&quot;&gt;&lt;div&gt;&lt;font face=&quot;Lucida Console&quot;&gt;&lt;span style=&quot;font-size: 11px;&quot;&gt;&lt;b&gt;idSensor: &lt;/b&gt;&lt;i&gt;String &lt;/i&gt;&lt;b&gt;tipo: &lt;/b&gt;&lt;i&gt;String&amp;nbsp;&lt;/i&gt;&lt;/span&gt;&lt;/font&gt;&lt;/div&gt;&lt;div&gt;&lt;font face=&quot;Lucida Console&quot;&gt;&lt;span style=&quot;font-size: 11px;&quot;&gt;&lt;b&gt;estado: &lt;/b&gt;&lt;i&gt;String &lt;/i&gt;&lt;b&gt;ultimaLectura: &lt;/b&gt;&lt;i&gt;Float&lt;/i&gt;&lt;/span&gt;&lt;/font&gt;&lt;/div&gt;&lt;div&gt;&lt;span style=&quot;background-color: transparent; color: light-dark(rgb(0, 0, 0), rgb(255, 255, 255)); font-family: &amp;quot;Lucida Console&amp;quot;;&quot;&gt;------------------------&lt;/span&gt;&lt;/div&gt;&lt;/div&gt;&lt;div&gt;&lt;div&gt;&lt;font face=&quot;Lucida Console&quot;&gt;&lt;i&gt;detectarAnomalia()&lt;/i&gt;&lt;/font&gt;&lt;/div&gt;&lt;div&gt;&lt;font face=&quot;Lucida Console&quot;&gt;&lt;i&gt;generarAlerta()&lt;/i&gt;&lt;/font&gt;&lt;/div&gt;&lt;div&gt;&lt;font face=&quot;Lucida Console&quot;&gt;&lt;i&gt;calibrar()&lt;/i&gt;&lt;/font&gt;&lt;/div&gt;&lt;div&gt;&lt;font face=&quot;Lucida Console&quot;&gt;&lt;i&gt;obtenerLectura()&lt;/i&gt;&lt;/font&gt;&lt;/div&gt;&lt;/div&gt;" style="ellipse;shape=cloud;whiteSpace=wrap;html=1;fillColor=#dae8fc;strokeColor=#6c8ebf;fillStyle=hatch;dashed=1;dashPattern=12 12;strokeWidth=3;" vertex="1" parent="QyW4r4yu_jU1wLreswry-102">
          <mxGeometry x="12.5" y="220" width="300" height="260" as="geometry" />
        </mxCell>
        <mxCell id="QyW4r4yu_jU1wLreswry-26" value="&lt;div&gt;&lt;font face=&quot;Lucida Console&quot;&gt;&lt;span style=&quot;font-size: 14px;&quot;&gt;&lt;b&gt;Alerta&lt;/b&gt;&lt;/span&gt;&lt;/font&gt;&lt;/div&gt;&lt;div&gt;&lt;font face=&quot;Lucida Console&quot;&gt;------------------------&lt;/font&gt;&lt;/div&gt;&lt;div style=&quot;line-height: 100%;&quot;&gt;&lt;div&gt;&lt;div&gt;&lt;font face=&quot;Lucida Console&quot;&gt;&lt;span style=&quot;font-size: 11px;&quot;&gt;&lt;b&gt;idAlerta: &lt;/b&gt;&lt;i&gt;String&amp;nbsp;&lt;/i&gt;&lt;/span&gt;&lt;/font&gt;&lt;/div&gt;&lt;div&gt;&lt;font face=&quot;Lucida Console&quot;&gt;&lt;span style=&quot;font-size: 11px;&quot;&gt;&lt;b&gt;fechaHora: &lt;/b&gt;&lt;i&gt;DateTime&amp;nbsp;&lt;/i&gt;&lt;/span&gt;&lt;/font&gt;&lt;/div&gt;&lt;div&gt;&lt;font face=&quot;Lucida Console&quot;&gt;&lt;span style=&quot;font-size: 11px;&quot;&gt;&lt;b&gt;descripcion: &lt;/b&gt;&lt;i&gt;String&amp;nbsp;&lt;/i&gt;&lt;/span&gt;&lt;/font&gt;&lt;/div&gt;&lt;div&gt;&lt;font face=&quot;Lucida Console&quot;&gt;&lt;span style=&quot;font-size: 11px;&quot;&gt;&lt;b&gt;prioridad: &lt;/b&gt;&lt;i&gt;String&lt;/i&gt;&lt;/span&gt;&lt;/font&gt;&lt;/div&gt;&lt;/div&gt;&lt;div&gt;&lt;span style=&quot;background-color: transparent; color: light-dark(rgb(0, 0, 0), rgb(255, 255, 255)); font-family: &amp;quot;Lucida Console&amp;quot;;&quot;&gt;------------------------&lt;/span&gt;&lt;/div&gt;&lt;/div&gt;&lt;div&gt;&lt;div&gt;&lt;font face=&quot;Lucida Console&quot;&gt;&lt;i&gt;crearMantenimientoCorrectivo()&lt;/i&gt;&lt;/font&gt;&lt;/div&gt;&lt;div&gt;&lt;font face=&quot;Lucida Console&quot;&gt;&lt;i&gt;notificarAdministrador()&lt;/i&gt;&lt;/font&gt;&lt;/div&gt;&lt;/div&gt;" style="ellipse;shape=cloud;whiteSpace=wrap;html=1;fillColor=#dae8fc;strokeColor=#6c8ebf;strokeWidth=3;fillStyle=hatch;dashed=1;dashPattern=12 12;" vertex="1" parent="QyW4r4yu_jU1wLreswry-102">
          <mxGeometry x="12.5" y="540" width="300" height="260" as="geometry" />
        </mxCell>
        <mxCell id="QyW4r4yu_jU1wLreswry-30" value="&lt;div&gt;&lt;font face=&quot;Lucida Console&quot;&gt;&lt;span style=&quot;font-size: 14px;&quot;&gt;&lt;b&gt;Reporte&lt;/b&gt;&lt;/span&gt;&lt;/font&gt;&lt;/div&gt;&lt;div&gt;&lt;font face=&quot;Lucida Console&quot;&gt;------------------------&lt;/font&gt;&lt;/div&gt;&lt;div style=&quot;line-height: 100%;&quot;&gt;&lt;div&gt;&lt;font face=&quot;Lucida Console&quot;&gt;&lt;span style=&quot;font-size: 11px;&quot;&gt;&lt;b&gt;idReporte: &lt;/b&gt;&lt;i&gt;String&amp;nbsp;&lt;/i&gt;&lt;/span&gt;&lt;/font&gt;&lt;/div&gt;&lt;div&gt;&lt;font face=&quot;Lucida Console&quot;&gt;&lt;span style=&quot;font-size: 11px;&quot;&gt;&lt;b&gt;fechaGeneracion: &lt;/b&gt;&lt;i&gt;Date&amp;nbsp;&lt;/i&gt;&lt;/span&gt;&lt;/font&gt;&lt;/div&gt;&lt;div&gt;&lt;font face=&quot;Lucida Console&quot;&gt;&lt;span style=&quot;font-size: 11px;&quot;&gt;&lt;b&gt;tipoReporte: &lt;/b&gt;&lt;i&gt;String&amp;nbsp;&lt;/i&gt;&lt;/span&gt;&lt;/font&gt;&lt;/div&gt;&lt;div&gt;&lt;font face=&quot;Lucida Console&quot;&gt;&lt;span style=&quot;font-size: 11px;&quot;&gt;&lt;b&gt;parametros: &lt;/b&gt;&lt;i&gt;String&lt;/i&gt;&lt;/span&gt;&lt;/font&gt;&lt;/div&gt;&lt;div&gt;&lt;span style=&quot;background-color: transparent; color: light-dark(rgb(0, 0, 0), rgb(255, 255, 255)); font-family: &amp;quot;Lucida Console&amp;quot;;&quot;&gt;------------------------&lt;/span&gt;&lt;/div&gt;&lt;/div&gt;&lt;div&gt;&lt;div&gt;&lt;font face=&quot;Lucida Console&quot;&gt;&lt;i&gt;generar()&lt;/i&gt;&lt;/font&gt;&lt;/div&gt;&lt;div&gt;&lt;font face=&quot;Lucida Console&quot;&gt;&lt;i&gt;visualizar()&lt;/i&gt;&lt;/font&gt;&lt;/div&gt;&lt;div&gt;&lt;font face=&quot;Lucida Console&quot;&gt;&lt;i&gt;exportar()&lt;/i&gt;&lt;/font&gt;&lt;/div&gt;&lt;/div&gt;" style="ellipse;shape=cloud;whiteSpace=wrap;html=1;fillColor=#dae8fc;strokeColor=#6c8ebf;dashed=1;dashPattern=12 12;strokeWidth=3;fillStyle=hatch;" vertex="1" parent="QyW4r4yu_jU1wLreswry-102">
          <mxGeometry x="662.5" y="270" width="300" height="260" as="geometry" />
        </mxCell>
        <mxCell id="QyW4r4yu_jU1wLreswry-42" style="edgeStyle=orthogonalEdgeStyle;rounded=0;orthogonalLoop=1;jettySize=auto;html=1;entryX=0.07;entryY=0.4;entryDx=0;entryDy=0;entryPerimeter=0;exitX=0.4;exitY=0.1;exitDx=0;exitDy=0;exitPerimeter=0;endArrow=oval;endFill=1;endSize=10;" edge="1" parent="QyW4r4yu_jU1wLreswry-102" source="QyW4r4yu_jU1wLreswry-22" target="MiX1Z2755fAzNrx2txld-1">
          <mxGeometry relative="1" as="geometry">
            <Array as="points">
              <mxPoint x="132.5" y="134" />
            </Array>
          </mxGeometry>
        </mxCell>
        <mxCell id="QyW4r4yu_jU1wLreswry-43" value="n" style="edgeLabel;html=1;align=center;verticalAlign=middle;resizable=0;points=[];" connectable="0" vertex="1" parent="QyW4r4yu_jU1wLreswry-42">
          <mxGeometry x="-0.8353" relative="1" as="geometry">
            <mxPoint x="-10" as="offset" />
          </mxGeometry>
        </mxCell>
        <mxCell id="QyW4r4yu_jU1wLreswry-44" value="1" style="edgeLabel;html=1;align=center;verticalAlign=middle;resizable=0;points=[];" connectable="0" vertex="1" parent="QyW4r4yu_jU1wLreswry-42">
          <mxGeometry x="0.7457" y="-2" relative="1" as="geometry">
            <mxPoint x="10" y="-16" as="offset" />
          </mxGeometry>
        </mxCell>
        <mxCell id="QyW4r4yu_jU1wLreswry-45" style="edgeStyle=orthogonalEdgeStyle;rounded=0;orthogonalLoop=1;jettySize=auto;html=1;entryX=0.96;entryY=0.7;entryDx=0;entryDy=0;entryPerimeter=0;exitX=0.07;exitY=0.4;exitDx=0;exitDy=0;exitPerimeter=0;endArrow=oval;endFill=0;startSize=6;endSize=10;" edge="1" parent="QyW4r4yu_jU1wLreswry-102" source="QyW4r4yu_jU1wLreswry-19" target="QyW4r4yu_jU1wLreswry-26">
          <mxGeometry relative="1" as="geometry" />
        </mxCell>
      </root>
    </mxGraphModel>
  </diagram>
</mxfile>
